<svg xmlns="http://www.w3.org/2000/svg" width="512" height="512" viewBox="0 0 612 612"><g fill="#F88600"><path d="M296.07 247.387c0-31.295-18.695-80.033-54.803-80.033-11.294 0-23.48 5.647-30.46 14.382-7.4 9.124-9.57 20.863-9.57 32.186 0 29.125 16.97 77.418 54.384 77.418 10.878 0 22.617-5.23 29.6-12.185 9.987-10.042 10.85-23.95 10.85-31.768z"/><path d="M612 306C612 137.004 474.995 0 306 0 137.004 0 0 137.004 0 306c0 168.995 137.004 306 306 306 168.995 0 306-137.005 306-306zm-211.836-58.835H423.7v47.068h47.067v23.535H423.7v47.068h-23.536v-47.068h-47.068v-23.535h47.068v-47.068zm-258.93 175.087c0-15.66 7.816-37.832 33.492-53.077 26.956-16.523 63.51-18.693 83.065-20-6.09-7.846-13.046-16.107-13.046-29.57 0-7.4 2.17-11.74 4.34-16.97-4.785.416-9.57.862-13.937.862-46.095 0-72.188-34.383-72.188-68.294 0-20 9.124-42.2 27.845-58.28C215.62 156.48 245.19 153 268.668 153h89.603l-27.845 15.634H303.47c9.985 8.262 30.877 25.676 30.877 58.724 0 32.186-18.276 47.402-36.525 61.756-5.647 5.647-12.184 11.74-12.184 21.31s6.537 14.8 11.294 18.693l15.662 12.184c19.14 16.08 36.525 30.88 36.525 60.923 0 40.865-39.586 82.203-114.39 82.203-63.036.028-93.497-29.988-93.497-62.174z"/><path d="M272.59 361.775c-3.477-.417-5.647-.417-9.987-.417-3.922 0-27.4.862-45.677 6.982-9.57 3.477-37.416 13.91-37.416 44.787s30.016 53.05 76.556 53.05c41.755 0 63.926-20.002 63.926-46.958 0-22.2-14.326-33.938-47.402-57.445z"/></g></svg>