<svg xmlns="http://www.w3.org/2000/svg" viewBox="0 0 486.392 486.392" width="512" height="512"><path d="M243.196 0C108.89 0 0 108.89 0 243.196s108.89 243.196 243.196 243.196 243.196-108.89 243.196-243.196C486.392 108.86 377.502 0 243.196 0zm120.99 188.598l.182 7.752c0 79.16-60.22 170.36-170.36 170.36-33.803 0-65.267-9.91-91.775-26.905 4.682.547 9.454.85 14.288.85 28.06 0 53.87-9.575 74.358-25.626-26.204-.487-48.305-17.815-55.935-41.587 3.678.7 7.387 1.034 11.278 1.034 5.473 0 10.762-.7 15.778-2.067-27.39-5.533-48.03-29.7-48.03-58.7v-.76c8.085 4.498 17.296 7.173 27.115 7.508-16.05-10.73-26.63-29.062-26.63-49.825 0-10.974 2.95-21.25 8.086-30.095 29.517 36.236 73.657 60.07 123.42 62.562-1.033-4.378-1.55-8.968-1.55-13.65 0-33.043 26.813-59.856 59.888-59.856 17.206 0 32.77 7.265 43.714 18.908a121.25 121.25 0 0 0 38.03-14.53c-4.47 13.983-13.953 25.717-26.326 33.134a120.032 120.032 0 0 0 34.382-9.424c-8.025 11.977-18.21 22.526-29.912 30.916z" fill="#F88600"/></svg>